<?xml version="1.0" encoding="UTF-8" standalone="no"?>
<svg
   xmlns:dc="http://purl.org/dc/elements/1.1/"
   xmlns:cc="http://creativecommons.org/ns#"
   xmlns:rdf="http://www.w3.org/1999/02/22-rdf-syntax-ns#"
   xmlns:svg="http://www.w3.org/2000/svg"
   xmlns="http://www.w3.org/2000/svg"
   xmlns:sodipodi="http://sodipodi.sourceforge.net/DTD/sodipodi-0.dtd"
   xmlns:inkscape="http://www.inkscape.org/namespaces/inkscape"
   enable-background="new -0.258 -0.548 123.547 123.539"
   viewBox="-0.258 -0.548 512.00001 511.99999"
   version="1.1"
   id="svg14"
   sodipodi:docname="unitools.svg"
   width="512"
   height="512"
   inkscape:version="1.0 (9f2f71dc58, 2020-08-02)">
  <metadata
     id="metadata20">
    <rdf:RDF>
      <cc:Work
         rdf:about="">
        <dc:format>image/svg+xml</dc:format>
        <dc:type
           rdf:resource="http://purl.org/dc/dcmitype/StillImage" />
        <dc:title></dc:title>
      </cc:Work>
    </rdf:RDF>
  </metadata>
  <defs
     id="defs18" />
  <sodipodi:namedview
     pagecolor="#ffffff"
     bordercolor="#666666"
     borderopacity="1"
     objecttolerance="10"
     gridtolerance="10"
     guidetolerance="10"
     inkscape:pageopacity="0"
     inkscape:pageshadow="2"
     inkscape:window-width="1853"
     inkscape:window-height="1025"
     id="namedview16"
     showgrid="false"
     inkscape:zoom="1.2563639"
     inkscape:cx="179.46226"
     inkscape:cy="274.81534"
     inkscape:window-x="67"
     inkscape:window-y="27"
     inkscape:window-maximized="1"
     inkscape:current-layer="svg14" />
  <g
     id="g907"
     transform="matrix(5.8188893,0,0,5.8188893,0.5445345,1.5950524)">
    <path
       d="m 77.477942,87.787252 c 5.812205,0 10.515897,-4.720098 10.515897,-10.53801 V 10.184897 C 87.993839,4.3669852 83.290147,-0.331 77.477942,-0.331 H 10.408604 C 4.5906918,-0.331 -0.113,4.3669852 -0.113,10.184897 v 67.064345 c 0,5.817912 4.7036918,10.53801 10.521604,10.53801 z"
       id="path2"
       style="stroke:none;stroke-width:0.713329" />
    <path
       d="m 10.40575,1.4516093 c -4.8149708,0 -8.7382807,3.9176032 -8.7382807,8.7325747 v 67.064344 c 0,4.826385 3.9233099,8.754688 8.7382807,8.754688 h 67.069338 c 4.820678,0 8.743988,-3.929016 8.743988,-8.754688 V 10.184184 c 0,-4.8149715 -3.92331,-8.7325747 -8.743988,-8.7325747 z"
       fill="#ffffff"
       id="path4"
       style="stroke:none;stroke-width:0.713329" />
    <path
       d="m 55.462467,57.02993 3.427546,2.908956 5.990538,-7.049832 -7.049832,-5.990537 -2.942482,3.460359 z"
       id="path6"
       style="stroke:none;stroke-width:0.713329" />
    <path
       d="m 75.156769,61.527469 -13.285754,-0.02283 -0.01641,13.553252 h 9.039306 l 4.262854,-4.597406 z"
       id="path8"
       style="stroke:none;stroke-width:0.713329" />
    <path
       d="m 51.14326,75.774791 4.491833,-1.342486 -4.040296,-13.514732 -9.590709,2.859023 -1.861789,8.080591 z"
       id="path10"
       style="stroke:none;stroke-width:0.713329" />
    <path
       d="M 41.897802,16.542799 C 31.521004,10.445975 26.059757,10.256943 16.618846,9.1584165 l -0.345251,1.7719095 c 11.719997,2.71921 14.690299,5.47266 22.75377,10.365384 l 1.11422,5.327855 -26.620727,43.854044 c -0.261791,0.523584 -0.418011,1.097813 -0.434417,1.721976 -0.03353,2.179221 1.68845,3.956837 3.845557,3.990363 1.432365,0.01641 2.686397,-0.729735 3.399726,-1.844669 l 26.19701,-42.86109 10.655709,6.826559 5.484074,-9.039305 -20.770715,-12.728644"
       id="path12"
       style="stroke:none;stroke-width:0.713329" />
    <path
       style="fill:#ff007a;fill-opacity:1;stroke:none;stroke-width:1.301;stroke-linecap:round;stroke-miterlimit:4;stroke-dasharray:none"
       d="m 62.221347,68.768707 v -6.566569 h 6.566569 6.566569 v 4.209801 4.209801 l -2.089363,2.347511 -2.089363,2.347511 -4.477206,0.0093 -4.477206,0.0093 z"
       id="path851"
       transform="translate(-0.258,-0.548)" />
    <path
       style="fill:#ff007a;fill-opacity:1;stroke:none;stroke-width:0.517764;stroke-linecap:round;stroke-miterlimit:4;stroke-dasharray:none"
       d="m 57.327002,58.520879 c -1.380091,-1.235151 -1.45532,-1.436833 -1.670032,-4.477206 l -0.224839,-3.183791 1.360575,-1.558367 1.360576,-1.558367 3.12846,2.717149 c 1.720654,1.494431 3.176475,2.83223 3.235159,2.972887 0.134438,0.322231 -5.033421,6.381111 -5.442703,6.381111 -0.166102,0 -0.95234,-0.582037 -1.747196,-1.293416 z"
       id="path853"
       transform="translate(-0.258,-0.548)" />
    <path
       style="fill:#ff007a;fill-opacity:1;stroke:none;stroke-width:0.517764;stroke-linecap:round;stroke-miterlimit:4;stroke-dasharray:none"
       d="m 46.302392,74.291968 c -2.736071,-0.983873 -5.115203,-1.927915 -5.286961,-2.097871 -0.171758,-0.169955 0.09687,-1.973348 0.596961,-4.007539 l 0.909248,-3.698528 4.521388,-1.36408 c 2.486763,-0.750244 4.571786,-1.309342 4.633382,-1.24244 0.163242,0.177302 3.779381,12.339292 3.779381,12.711015 0,0.172754 -0.727555,0.510008 -1.616787,0.749453 -0.889233,0.239446 -1.829447,0.503642 -2.089363,0.587103 -0.259917,0.08346 -2.711179,-0.65324 -5.447249,-1.637113 z"
       id="path855"
       transform="translate(-0.258,-0.548)" />
    <path
       style="fill:#ff007a;fill-opacity:1;stroke:none;stroke-width:0.517764;stroke-linecap:round;stroke-miterlimit:4;stroke-dasharray:none"
       d="m 14.831842,75.365888 c -0.798223,-0.798224 -1.163308,-1.560663 -1.163308,-2.42944 0,-0.961282 3.254502,-6.623272 13.51682,-23.515766 7.434251,-12.237298 13.444283,-22.471381 13.355627,-22.742406 -0.08866,-0.271026 -0.361578,-1.513008 -0.606492,-2.759961 l -0.445297,-2.267188 -3.856424,-2.381392 c -5.372651,-3.317683 -10.25047,-5.578376 -14.746405,-6.834426 -2.818169,-0.787325 -3.871996,-1.257956 -3.974385,-1.77493 -0.127077,-0.64163 0.117977,-0.6784852 2.785817,-0.418971 7.04949,0.68574 11.966969,1.932174 17.252211,4.372918 2.299754,1.062035 23.60812,13.793388 25.131306,15.015488 0.326641,0.262073 -0.210306,1.460962 -1.883109,4.204605 -1.287024,2.110898 -2.500271,3.998229 -2.696106,4.194067 -0.209446,0.209442 -2.415626,-0.967519 -5.357522,-2.858147 -2.750798,-1.767819 -5.145844,-3.211643 -5.322324,-3.208498 -0.17648,0.0031 -6.230784,9.695614 -13.45401,21.538821 -7.223226,11.843205 -13.560238,21.869576 -14.08225,22.280818 -1.409287,1.110248 -3.084627,0.953931 -4.454149,-0.415592 z"
       id="path857"
       transform="translate(-0.258,-0.548)" />
  </g>
</svg>
